<svg width="24" height="25" viewBox="0 0 24 25" fill="none" xmlns="http://www.w3.org/2000/svg">
<g clip-path="url(#clip0_44_4905)">
<path d="M8.99363 9.64522C9.13087 10.3418 9.5057 10.9691 10.0541 11.42C10.6025 11.8708 11.2904 12.1173 12.0004 12.1173C12.7103 12.1173 13.3982 11.8708 13.9466 11.42C14.495 10.9691 14.8699 10.3418 15.0071 9.64522L15.4748 7.2398C15.5386 6.78286 15.5036 6.31757 15.3724 5.87527C15.2412 5.43296 15.0167 5.02392 14.714 4.67569C14.4114 4.32746 14.0376 4.04814 13.6179 3.85654C13.1982 3.66494 12.7424 3.5655 12.281 3.56494H11.7197C11.2594 3.56498 10.8044 3.66359 10.3854 3.85414C9.96639 4.0447 9.59303 4.32278 9.29044 4.66967C8.98786 5.01657 8.76307 5.42425 8.6312 5.86527C8.49933 6.3063 8.46343 6.77046 8.52593 7.22652L8.99363 9.64522ZM19.9916 19.6678L18.9762 14.8837C18.942 14.732 18.8702 14.5913 18.7675 14.4746C18.6648 14.3578 18.5343 14.2688 18.3882 14.2156L15.1275 13.053L13.0828 15.9795L12.8289 13.7878C12.82 13.7202 12.7864 13.6582 12.7346 13.6139C12.6828 13.5695 12.6164 13.5458 12.5482 13.5473H11.4257C11.3581 13.5479 11.2929 13.5724 11.2415 13.6164C11.1902 13.6604 11.156 13.7211 11.1451 13.7878L10.8912 15.9795L8.87332 13.0529L5.61271 14.2155C5.46658 14.2687 5.33615 14.3578 5.23341 14.4745C5.13067 14.5913 5.0589 14.7319 5.0247 14.8836L4.0091 19.6678C3.99697 19.7238 3.99748 19.7819 4.01061 19.8377C4.02373 19.8936 4.04913 19.9458 4.08496 19.9906C4.1208 20.0354 4.16616 20.0716 4.21776 20.0967C4.26935 20.1218 4.32588 20.135 4.38324 20.1355H19.6175C19.6748 20.135 19.7314 20.1218 19.783 20.0967C19.8346 20.0716 19.8799 20.0354 19.9158 19.9906C19.9516 19.9458 19.977 19.8936 19.9901 19.8377C20.0032 19.7819 20.0038 19.7238 19.9916 19.6678V19.6678Z" fill="#4B5563"/>
</g>
<defs>
<clipPath id="clip0_44_4905">
<rect width="24" height="24" fill="white" transform="translate(0.000366211 0.564941)"/>
</clipPath>
</defs>
</svg>
