<svg width="22" height="22" viewBox="0 0 22 22" fill="none" xmlns="http://www.w3.org/2000/svg">
<path d="M13.5454 4.98186C13.3333 5.19825 13.2145 5.48918 13.2145 5.79218C13.2145 6.09518 13.3333 6.38611 13.5454 6.60249L15.3975 8.45464C15.6139 8.66674 15.9048 8.78555 16.2078 8.78555C16.5108 8.78555 16.8017 8.66674 17.0181 8.45464L21.3823 4.09052C21.9643 5.37682 22.1406 6.80997 21.8875 8.19898C21.6344 9.58799 20.964 10.8669 19.9657 11.8652C18.9673 12.8636 17.6884 13.534 16.2994 13.787C14.9104 14.0401 13.4773 13.8639 12.191 13.2818L4.19201 21.2808C3.73149 21.7413 3.1069 22 2.45562 22C1.80435 22 1.17975 21.7413 0.719236 21.2808C0.258717 20.8202 0 20.1956 0 19.5444C0 18.8931 0.258717 18.2685 0.719236 17.808L8.7182 9.80902C8.13612 8.52272 7.95988 7.08957 8.21296 5.70056C8.46604 4.31155 9.13642 3.03266 10.1348 2.03431C11.1331 1.03596 12.412 0.36558 13.801 0.1125C15.19 -0.140581 16.6232 0.0356615 17.9095 0.61774L13.5569 4.97029L13.5454 4.98186Z" fill="#4B5563"/>
</svg>
